#!OML:ASF H:\Terrain\Patient Classification 1\Takeo\Monday\TakeoMonday.ASF
:FULLY-SPECIFIED
:DEGREES
130
root 3.94272 17.6413 0.49716 -10.675 75.6228 -8.97106
lowerback 6.02686 -1.89792 4.16136
upperback 3.10235 -2.24607 0.157226
thorax -0.331272 -1.05665 -2.02878
lowerneck -6.01488 -9.15685 -4.16131
upperneck -4.37652 -11.8022 7.73589
head 0.398666 -5.79305 2.83918
rclavicle -4.58571e-014 1.52319e-014
rhumerus -12.911 34.3112 -102.782
rradius 63.8081
rwrist -18.9158
rhand -41.1481 45.617
rfingers 7.12502
rthumb -14.0744 16.1136
lclavicle -4.58571e-014 1.52319e-014
lhumerus -2.89172 -30.3371 95.5845
lradius 75.2994
lwrist 24.0116
lhand -38.9692 13.347
lfingers 7.12502
lthumb -11.9739 42.9845
rfemur -8.71819 -6.73729 18.6707
rtibia 27.3857
rfoot -15.7801 -17.9565
rtoes -0.843843
lfemur -6.79786 14.7388 -13.0046
ltibia 33.8014
lfoot -18.5616 17.2879
ltoes -1.05732
131
root 3.92894 17.6311 0.482824 -11.2777 76.0233 -9.54964
lowerback 6.12842 -1.70296 3.97561
upperback 3.13003 -1.9894 0.254007
thorax -0.333195 -0.929628 -1.84025
lowerneck -5.54866 -9.51393 -3.7358
upperneck -5.01536 -12.2793 7.5226
head 0.0997431 -6.0531 2.72062
rclavicle 1.2497e-014 -7.72775e-015
rhumerus -12.3392 35.0489 -102.359
rradius 63.7924
rwrist -19.572
rhand -41.6265 46.3957
rfingers 7.12502
rthumb -14.5353 16.9249
lclavicle 1.2497e-014 -7.72775e-015
lhumerus -2.39048 -30.2324 95.3016
lradius 75.3365
lwrist 23.7391
lhand -39.6273 13.5137
lfingers 7.12502
lthumb -12.6085 43.1132
rfemur -8.63285 -6.51614 18.6944
rtibia 27.2671
rfoot -16.0236 -18.4206
rtoes 1.23292
lfemur -6.74379 14.6816 -13.0332
ltibia 33.4336
lfoot -18.8944 17.1585
ltoes 0.431226
132
root 3.91572 17.6234 0.454418 -9.86874 76.5552 -8.25285
lowerback 6.10271 -1.51293 3.53621
upperback 3.05584 -1.76339 0.157092
thorax -0.372714 -0.823295 -1.70882
lowerneck -5.77913 -9.69735 -4.21695
upperneck -4.74082 -12.5026 8.14578
head 0.318467 -6.14757 2.97254
rclavicle -9.55098e-016 9.69075e-016
rhumerus -11.8733 35.5698 -102.093
rradius 63.8785
rwrist -20.2361
rhand -41.6802 46.8459
rfingers 7.12502
rthumb -14.587 17.3789
lclavicle -9.55098e-016 9.69075e-016
lhumerus -2.17613 -30.1342 94.9219
lradius 75.6309
lwrist 23.7558
lhand -40.0817 13.7092
lfingers 7.12502
lthumb -13.0466 43.2812
rfemur -8.79351 -6.65179 18.1528
rtibia 27.2364
rfoot -15.9813 -18.6742
rtoes 1.80334
lfemur -6.87395 14.6646 -13.6841
ltibia 33.0204
lfoot -19.107 16.9402
ltoes 2.04577
133
root 3.91132 17.6159 0.435227 -11.0826 77.6403 -9.56648
lowerback 5.99923 -1.57136 3.4922
upperback 2.9884 -1.84674 0.23289
thorax -0.385738 -0.867294 -1.60231
lowerneck -5.88239 -9.80144 -4.9443
upperneck -4.44322 -12.6162 8.78349
head 0.539674 -6.18618 3.2858
rclavicle -4.63432e-014 5.08143e-015
rhumerus -11.4607 35.7037 -101.954
rradius 63.9273
rwrist -20.765
rhand -40.9629 45.9273
rfingers 7.12502
rthumb -13.8959 16.4116
lclavicle -4.63432e-014 5.08143e-015
lhumerus -2.07117 -29.9506 94.5317
lradius 75.9748
lwrist 23.7109
lhand -40.9312 14.6357
lfingers 7.12502
lthumb -13.8653 44.1535
rfemur -8.72785 -6.93894 18.2258
rtibia 27.3054
rfoot -16.1714 -19.3858
rtoes 0.800566
lfemur -6.98336 14.524 -13.6659
ltibia 32.5377
lfoot -18.8195 16.763
ltoes 1.03606
134
root 3.90167 17.6157 0.397907 -12.7057 78.5745 -11.1892
lowerback 6.01453 -1.5867 3.50995
upperback 3.00098 -1.86091 0.455925
thorax -0.375346 -0.874016 -1.38187
lowerneck -5.74693 -10.0114 -5.48775
upperneck -4.5009 -12.8726 8.91426
head 0.565476 -6.31066 3.41812
rclavicle -5.21002e-014 1.25731e-014
rhumerus -10.767 36.3957 -101.213
rradius 63.9659
rwrist -21.3981
rhand -40.4554 44.9645
rfingers 7.12502
rthumb -13.4068 15.4159
lclavicle -5.21002e-014 1.25731e-014
lhumerus -1.63366 -29.5604 94.5293
lradius 76.0166
lwrist 23.3358
lhand -40.8046 15.7376
lfingers 7.12502
lthumb -13.7433 45.2637
rfemur -8.66676 -7.24043 18.2635
rtibia 27.4352
rfoot -16.5156 -19.9334
rtoes 1.09935
lfemur -7.01034 14.1358 -13.6925
ltibia 32.0509
lfoot -18.8773 16.7904
ltoes 0.312039
135
root 3.89172 17.6191 0.362633 -14.5016 79.448 -12.9313
lowerback 6.00723 -1.57027 3.49143
upperback 3.09772 -1.83608 0.654773
thorax -0.263503 -0.858149 -1.17055
lowerneck -5.7616 -10.2404 -6.1483
upperneck -4.38516 -13.1529 9.35171
head 0.71167 -6.43905 3.65838
rclavicle 6.32384e-015 2.23633e-015
rhumerus -9.91012 36.9051 -100.565
rradius 63.7103
rwrist -21.3709
rhand -40.7662 45.3735
rfingers 7.12502
rthumb -13.7063 15.8448
lclavicle 6.32384e-015 2.23633e-015
lhumerus -0.968342 -29.2102 94.5019
lradius 75.9269
lwrist 22.8071
lhand -39.214 17.091
lfingers 7.12502
lthumb -12.21 46.7146
rfemur -8.55661 -7.55615 18.2834
rtibia 27.5972
rfoot -16.9179 -20.4335
rtoes 1.99774
lfemur -6.96284 13.5596 -13.7446
ltibia 31.6239
lfoot -19.029 16.5528
ltoes 0.892179
136
root 3.88034 17.606 0.333424 -14.1152 80.3935 -12.503
lowerback 6.01248 -1.54148 3.11383
upperback 3.14522 -1.81878 0.545397
thorax -0.209495 -0.851298 -1.07353
lowerneck -5.96328 -10.4098 -6.95935
upperneck -4.04405 -13.3518 10.4246
head 1.02986 -6.51347 4.13159
rclavicle 1.67103e-014 1.88348e-014
rhumerus -9.10152 36.8773 -100.474
rradius 63.2146
rwrist -20.8043
rhand -41.2116 45.7396
rfingers 7.12502
rthumb -14.1355 16.2405
lclavicle 1.67103e-014 1.88348e-014
lhumerus -0.520078 -29.0806 94.018
lradius 76.1069
lwrist 22.4939
lhand -38.2032 16.8638
lfingers 7.12502
lthumb -11.2352 46.5429
rfemur -8.56628 -7.99677 17.8639
rtibia 27.8041
rfoot -16.5774 -21.0535
rtoes -0.400032
lfemur -6.99658 12.921 -14.3037
ltibia 31.286
lfoot -18.6738 16.7086
ltoes -0.164684
137
root 3.87146 17.5922 0.306208 -12.065 81.4671 -10.4767
lowerback 5.96399 -1.51628 2.51251
upperback 3.11386 -1.82224 0.307847
thorax -0.205309 -0.859308 -0.981695
lowerneck -6.09515 -10.5754 -7.79646
upperneck -3.71218 -13.5406 12.2082
head 1.27482 -6.56871 4.35548
rclavicle 1.14922e-014 -1.23122e-014
rhumerus -8.42725 37.0093 -100.391
rradius 62.9037
rwrist -20.2743
rhand -41.8485 45.3092
rfingers 7.12502
rthumb -14.7492 15.8539
lclavicle 1.14922e-014 -1.23122e-014
lhumerus -0.234947 -28.9847 93.5493
lradius 76.2544
lwrist 22.2838
lhand -39.2152 14.3735
lfingers 7.12502
lthumb -12.2111 43.9971
rfemur -8.67126 -8.49275 17.1749
rtibia 28.0207
rfoot -16.1266 -21.7715
rtoes -3.25378
lfemur -7.15343 12.3954 -15.1281
ltibia 31.046
lfoot -17.9807 16.8239
ltoes -2.88038
138
root 3.86386 17.5847 0.273205 -13.2654 82.4478 -11.6575
lowerback 5.954 -1.47487 2.40796
upperback 3.12297 -1.77262 0.267509
thorax -0.186937 -0.834784 -0.968106
lowerneck -4.97554 -11.0294 -5.6682
upperneck -5.12279 -14.2112 10.0332
head 0.441553 -6.99713 3.81104
rclavicle -3.53396e-015 3.17745e-015
rhumerus -7.84739 36.9996 -100.201
rradius 62.7183
rwrist -19.8228
rhand -42.2407 45.1111
rfingers 7.12502
rthumb -15.127 15.6839
lclavicle -3.53396e-015 3.17745e-015
lhumerus 0.263865 -28.9772 93.291
lradius 76.14
lwrist 21.8126
lhand -40.8074 12.8794
lfingers 7.12502
lthumb -13.746 42.4054
rfemur -8.6002 -8.8782 16.9727
rtibia 28.2034
rfoot -16.436 -22.323
rtoes -3.67494
lfemur -7.26986 11.9797 -15.3074
ltibia 30.939
lfoot -17.5275 16.3625
ltoes -3.74326
